<mxfile host="app.diagrams.net" agent="Mozilla/5.0 (Windows NT 10.0; Win64; x64) AppleWebKit/537.36 (KHTML, like Gecko) Chrome/129.0.0.0 Safari/537.36" version="24.7.17">
  <diagram name="第 1 页" id="SQ8x01-hUVIeRh_8INY6">
    <mxGraphModel dx="1619" dy="856" grid="1" gridSize="10" guides="1" tooltips="1" connect="1" arrows="1" fold="1" page="1" pageScale="1" pageWidth="827" pageHeight="1169" math="0" shadow="0">
      <root>
        <mxCell id="0" />
        <mxCell id="1" parent="0" />
        <mxCell id="Ag7W7s5oAOkGKFc84ClT-1" value="" style="rounded=0;whiteSpace=wrap;html=1;strokeColor=none;" vertex="1" parent="1">
          <mxGeometry x="30" y="130" width="1150" height="460" as="geometry" />
        </mxCell>
        <mxCell id="Ag7W7s5oAOkGKFc84ClT-30" value="" style="edgeStyle=orthogonalEdgeStyle;rounded=0;orthogonalLoop=1;jettySize=auto;html=1;entryX=0;entryY=0.5;entryDx=0;entryDy=0;strokeColor=none;" edge="1" parent="1" source="Ag7W7s5oAOkGKFc84ClT-2" target="Ag7W7s5oAOkGKFc84ClT-22">
          <mxGeometry relative="1" as="geometry">
            <mxPoint x="429" y="475.5" as="targetPoint" />
            <Array as="points">
              <mxPoint x="380" y="455" />
              <mxPoint x="380" y="455" />
            </Array>
          </mxGeometry>
        </mxCell>
        <mxCell id="Ag7W7s5oAOkGKFc84ClT-2" value="" style="rounded=0;whiteSpace=wrap;html=1;" vertex="1" parent="1">
          <mxGeometry x="39" y="394" width="310" height="120" as="geometry" />
        </mxCell>
        <mxCell id="Ag7W7s5oAOkGKFc84ClT-3" value="" style="rounded=1;whiteSpace=wrap;html=1;fillColor=#dae8fc;strokeColor=#6c8ebf;" vertex="1" parent="1">
          <mxGeometry x="49" y="427" width="90" height="40" as="geometry" />
        </mxCell>
        <mxCell id="Ag7W7s5oAOkGKFc84ClT-4" value="" style="rounded=1;whiteSpace=wrap;html=1;fillColor=#dae8fc;strokeColor=#6c8ebf;" vertex="1" parent="1">
          <mxGeometry x="149" y="427" width="90" height="40" as="geometry" />
        </mxCell>
        <mxCell id="Ag7W7s5oAOkGKFc84ClT-5" value="&lt;span style=&quot;color: rgba(0, 0, 0, 0); font-family: monospace; font-size: 0px; text-align: start; text-wrap: nowrap;&quot;&gt;%3CmxGraphModel%3E%3Croot%3E%3CmxCell%20id%3D%220%22%2F%3E%3CmxCell%20id%3D%221%22%20parent%3D%220%22%2F%3E%3CmxCell%20id%3D%222%22%20value%3D%22Producer%26lt%3Bdiv%26gt%3B%E6%B6%88%E6%81%AF%E7%94%9F%E6%88%90%E8%80%85%26lt%3B%2Fdiv%26gt%3B%22%20style%3D%22text%3Bhtml%3D1%3Balign%3Dcenter%3BverticalAlign%3Dmiddle%3BwhiteSpace%3Dwrap%3Brounded%3D0%3B%22%20vertex%3D%221%22%20parent%3D%221%22%3E%3CmxGeometry%20x%3D%2271.5%22%20y%3D%22490%22%20width%3D%2279%22%20height%3D%2230%22%20as%3D%22geometry%22%2F%3E%3C%2FmxCell%3E%3C%2Froot%3E%3C%2FmxGraphModel%3E&lt;/span&gt;" style="rounded=1;whiteSpace=wrap;html=1;fillColor=#dae8fc;strokeColor=#6c8ebf;" vertex="1" parent="1">
          <mxGeometry x="249" y="422" width="90" height="40" as="geometry" />
        </mxCell>
        <mxCell id="Ag7W7s5oAOkGKFc84ClT-7" value="Producer&lt;div&gt;消息生产者&lt;/div&gt;" style="text;html=1;align=center;verticalAlign=middle;whiteSpace=wrap;rounded=0;" vertex="1" parent="1">
          <mxGeometry x="54.5" y="475" width="79" height="30" as="geometry" />
        </mxCell>
        <mxCell id="Ag7W7s5oAOkGKFc84ClT-8" value="Producer" style="text;html=1;align=center;verticalAlign=middle;whiteSpace=wrap;rounded=0;" vertex="1" parent="1">
          <mxGeometry x="154.5" y="475" width="79" height="30" as="geometry" />
        </mxCell>
        <mxCell id="Ag7W7s5oAOkGKFc84ClT-9" value="Producer" style="text;html=1;align=center;verticalAlign=middle;whiteSpace=wrap;rounded=0;" vertex="1" parent="1">
          <mxGeometry x="254.5" y="475" width="79" height="30" as="geometry" />
        </mxCell>
        <mxCell id="Ag7W7s5oAOkGKFc84ClT-10" value="" style="rounded=0;whiteSpace=wrap;html=1;" vertex="1" parent="1">
          <mxGeometry x="429" y="150" width="310" height="119" as="geometry" />
        </mxCell>
        <mxCell id="Ag7W7s5oAOkGKFc84ClT-11" value="" style="rounded=1;whiteSpace=wrap;html=1;fillColor=#d5e8d4;strokeColor=#82b366;" vertex="1" parent="1">
          <mxGeometry x="439" y="180" width="90" height="40" as="geometry" />
        </mxCell>
        <mxCell id="Ag7W7s5oAOkGKFc84ClT-12" value="" style="rounded=1;whiteSpace=wrap;html=1;fillColor=#d5e8d4;strokeColor=#82b366;" vertex="1" parent="1">
          <mxGeometry x="539" y="180" width="90" height="40" as="geometry" />
        </mxCell>
        <mxCell id="Ag7W7s5oAOkGKFc84ClT-13" value="&lt;span style=&quot;color: rgba(0, 0, 0, 0); font-family: monospace; font-size: 0px; text-align: start; text-wrap: nowrap;&quot;&gt;%3CmxGraphModel%3E%3Croot%3E%3CmxCell%20id%3D%220%22%2F%3E%3CmxCell%20id%3D%221%22%20parent%3D%220%22%2F%3E%3CmxCell%20id%3D%222%22%20value%3D%22Producer%26lt%3Bdiv%26gt%3B%E6%B6%88%E6%81%AF%E7%94%9F%E6%88%90%E8%80%85%26lt%3B%2Fdiv%26gt%3B%22%20style%3D%22text%3Bhtml%3D1%3Balign%3Dcenter%3BverticalAlign%3Dmiddle%3BwhiteSpace%3Dwrap%3Brounded%3D0%3B%22%20vertex%3D%221%22%20parent%3D%221%22%3E%3CmxGeometry%20x%3D%2271.5%22%20y%3D%22490%22%20width%3D%2279%22%20height%3D%2230%22%20as%3D%22geometry%22%2F%3E%3C%2FmxCell%3E%3C%2Froot%3E%3C%2FmxGraphModel%3E&lt;/span&gt;" style="rounded=1;whiteSpace=wrap;html=1;fillColor=#d5e8d4;strokeColor=#82b366;" vertex="1" parent="1">
          <mxGeometry x="639" y="180" width="90" height="40" as="geometry" />
        </mxCell>
        <mxCell id="Ag7W7s5oAOkGKFc84ClT-14" value="NameServer&lt;div&gt;Topic路由注册中心&lt;/div&gt;" style="text;html=1;align=center;verticalAlign=middle;whiteSpace=wrap;rounded=0;" vertex="1" parent="1">
          <mxGeometry x="433.5" y="229" width="105.5" height="30" as="geometry" />
        </mxCell>
        <mxCell id="Ag7W7s5oAOkGKFc84ClT-20" value="NameServer" style="text;html=1;align=center;verticalAlign=middle;whiteSpace=wrap;rounded=0;" vertex="1" parent="1">
          <mxGeometry x="544.5" y="229" width="79" height="30" as="geometry" />
        </mxCell>
        <mxCell id="Ag7W7s5oAOkGKFc84ClT-21" value="NameServer" style="text;html=1;align=center;verticalAlign=middle;whiteSpace=wrap;rounded=0;" vertex="1" parent="1">
          <mxGeometry x="639" y="229" width="79" height="30" as="geometry" />
        </mxCell>
        <mxCell id="Ag7W7s5oAOkGKFc84ClT-22" value="" style="rounded=0;whiteSpace=wrap;html=1;" vertex="1" parent="1">
          <mxGeometry x="430" y="330" width="320" height="250" as="geometry" />
        </mxCell>
        <mxCell id="Ag7W7s5oAOkGKFc84ClT-23" value="" style="rounded=1;whiteSpace=wrap;html=1;fillColor=#ffe6cc;strokeColor=#d79b00;" vertex="1" parent="1">
          <mxGeometry x="472.25" y="445" width="90" height="40" as="geometry" />
        </mxCell>
        <mxCell id="Ag7W7s5oAOkGKFc84ClT-26" value="Broker Server" style="text;html=1;align=center;verticalAlign=middle;whiteSpace=wrap;rounded=0;" vertex="1" parent="1">
          <mxGeometry x="433.5" y="300" width="94.5" height="30" as="geometry" />
        </mxCell>
        <mxCell id="Ag7W7s5oAOkGKFc84ClT-31" value="" style="rounded=1;whiteSpace=wrap;html=1;fillColor=#ffe6cc;strokeColor=#d79b00;" vertex="1" parent="1">
          <mxGeometry x="472.25" y="380" width="90" height="40" as="geometry" />
        </mxCell>
        <mxCell id="Ag7W7s5oAOkGKFc84ClT-35" value="" style="shape=curlyBracket;whiteSpace=wrap;html=1;rounded=1;labelPosition=left;verticalLabelPosition=middle;align=right;verticalAlign=middle;" vertex="1" parent="1">
          <mxGeometry x="445" y="380" width="20" height="170" as="geometry" />
        </mxCell>
        <mxCell id="Ag7W7s5oAOkGKFc84ClT-36" value="Broker Cluster 集群模式" style="text;html=1;align=center;verticalAlign=middle;whiteSpace=wrap;rounded=0;" vertex="1" parent="1">
          <mxGeometry x="439" y="340" width="135.5" height="30" as="geometry" />
        </mxCell>
        <mxCell id="Ag7W7s5oAOkGKFc84ClT-38" value="Broker Slave2" style="text;html=1;align=center;verticalAlign=middle;whiteSpace=wrap;rounded=0;" vertex="1" parent="1">
          <mxGeometry x="472.25" y="547" width="94.5" height="30" as="geometry" />
        </mxCell>
        <mxCell id="Ag7W7s5oAOkGKFc84ClT-39" value="Broker Master1" style="text;html=1;align=center;verticalAlign=middle;whiteSpace=wrap;rounded=0;" vertex="1" parent="1">
          <mxGeometry x="472.25" y="415" width="94.5" height="30" as="geometry" />
        </mxCell>
        <mxCell id="Ag7W7s5oAOkGKFc84ClT-40" value="" style="rounded=1;whiteSpace=wrap;html=1;fillColor=#ffe6cc;strokeColor=#d79b00;" vertex="1" parent="1">
          <mxGeometry x="472.25" y="511" width="90" height="40" as="geometry" />
        </mxCell>
        <mxCell id="Ag7W7s5oAOkGKFc84ClT-41" value="Broker Slave1" style="text;html=1;align=center;verticalAlign=middle;whiteSpace=wrap;rounded=0;" vertex="1" parent="1">
          <mxGeometry x="474.5" y="480" width="94.5" height="30" as="geometry" />
        </mxCell>
        <mxCell id="Ag7W7s5oAOkGKFc84ClT-43" value="" style="rounded=1;whiteSpace=wrap;html=1;fillColor=#ffe6cc;strokeColor=#d79b00;" vertex="1" parent="1">
          <mxGeometry x="603" y="445" width="90" height="40" as="geometry" />
        </mxCell>
        <mxCell id="Ag7W7s5oAOkGKFc84ClT-44" value="" style="rounded=1;whiteSpace=wrap;html=1;fillColor=#ffe6cc;strokeColor=#d79b00;" vertex="1" parent="1">
          <mxGeometry x="603" y="380" width="90" height="40" as="geometry" />
        </mxCell>
        <mxCell id="Ag7W7s5oAOkGKFc84ClT-45" value="Broker Slave2" style="text;html=1;align=center;verticalAlign=middle;whiteSpace=wrap;rounded=0;" vertex="1" parent="1">
          <mxGeometry x="603" y="547" width="94.5" height="30" as="geometry" />
        </mxCell>
        <mxCell id="Ag7W7s5oAOkGKFc84ClT-46" value="Broker Master1" style="text;html=1;align=center;verticalAlign=middle;whiteSpace=wrap;rounded=0;" vertex="1" parent="1">
          <mxGeometry x="603" y="415" width="94.5" height="30" as="geometry" />
        </mxCell>
        <mxCell id="Ag7W7s5oAOkGKFc84ClT-47" value="" style="rounded=1;whiteSpace=wrap;html=1;fillColor=#ffe6cc;strokeColor=#d79b00;" vertex="1" parent="1">
          <mxGeometry x="603" y="511" width="90" height="40" as="geometry" />
        </mxCell>
        <mxCell id="Ag7W7s5oAOkGKFc84ClT-48" value="Broker Slave1" style="text;html=1;align=center;verticalAlign=middle;whiteSpace=wrap;rounded=0;" vertex="1" parent="1">
          <mxGeometry x="605.25" y="480" width="94.5" height="30" as="geometry" />
        </mxCell>
        <mxCell id="Ag7W7s5oAOkGKFc84ClT-50" value="" style="shape=curlyBracket;whiteSpace=wrap;html=1;rounded=1;labelPosition=left;verticalLabelPosition=middle;align=right;verticalAlign=middle;" vertex="1" parent="1">
          <mxGeometry x="574" y="381" width="20" height="170" as="geometry" />
        </mxCell>
        <mxCell id="Ag7W7s5oAOkGKFc84ClT-51" value="" style="rounded=0;whiteSpace=wrap;html=1;" vertex="1" parent="1">
          <mxGeometry x="850" y="395" width="310" height="121" as="geometry" />
        </mxCell>
        <mxCell id="Ag7W7s5oAOkGKFc84ClT-52" value="" style="rounded=1;whiteSpace=wrap;html=1;fillColor=#f8cecc;strokeColor=#b85450;" vertex="1" parent="1">
          <mxGeometry x="860" y="432" width="90" height="40" as="geometry" />
        </mxCell>
        <mxCell id="Ag7W7s5oAOkGKFc84ClT-53" value="" style="rounded=1;whiteSpace=wrap;html=1;fillColor=#f8cecc;strokeColor=#b85450;" vertex="1" parent="1">
          <mxGeometry x="960" y="432" width="90" height="40" as="geometry" />
        </mxCell>
        <mxCell id="Ag7W7s5oAOkGKFc84ClT-54" value="&lt;span style=&quot;color: rgba(0, 0, 0, 0); font-family: monospace; font-size: 0px; text-align: start; text-wrap: nowrap;&quot;&gt;%3CmxGraphModel%3E%3Croot%3E%3CmxCell%20id%3D%220%22%2F%3E%3CmxCell%20id%3D%221%22%20parent%3D%220%22%2F%3E%3CmxCell%20id%3D%222%22%20value%3D%22Producer%26lt%3Bdiv%26gt%3B%E6%B6%88%E6%81%AF%E7%94%9F%E6%88%90%E8%80%85%26lt%3B%2Fdiv%26gt%3B%22%20style%3D%22text%3Bhtml%3D1%3Balign%3Dcenter%3BverticalAlign%3Dmiddle%3BwhiteSpace%3Dwrap%3Brounded%3D0%3B%22%20vertex%3D%221%22%20parent%3D%221%22%3E%3CmxGeometry%20x%3D%2271.5%22%20y%3D%22490%22%20width%3D%2279%22%20height%3D%2230%22%20as%3D%22geometry%22%2F%3E%3C%2FmxCell%3E%3C%2Froot%3E%3C%2FmxGraphModel%3E&lt;/span&gt;" style="rounded=1;whiteSpace=wrap;html=1;fillColor=#f8cecc;strokeColor=#b85450;" vertex="1" parent="1">
          <mxGeometry x="1060" y="432" width="90" height="40" as="geometry" />
        </mxCell>
        <mxCell id="Ag7W7s5oAOkGKFc84ClT-55" value="&lt;div&gt;Comsumer&lt;/div&gt;&lt;div&gt;消息生产者&lt;/div&gt;" style="text;html=1;align=center;verticalAlign=middle;whiteSpace=wrap;rounded=0;" vertex="1" parent="1">
          <mxGeometry x="865.5" y="481" width="79" height="30" as="geometry" />
        </mxCell>
        <mxCell id="Ag7W7s5oAOkGKFc84ClT-56" value="&lt;div&gt;Comsumer&lt;/div&gt;" style="text;html=1;align=center;verticalAlign=middle;whiteSpace=wrap;rounded=0;" vertex="1" parent="1">
          <mxGeometry x="965.5" y="481" width="79" height="30" as="geometry" />
        </mxCell>
        <mxCell id="Ag7W7s5oAOkGKFc84ClT-60" value="Producer Cluster 集群模式" style="text;html=1;align=center;verticalAlign=middle;whiteSpace=wrap;rounded=0;" vertex="1" parent="1">
          <mxGeometry x="49" y="398" width="151" height="30" as="geometry" />
        </mxCell>
        <mxCell id="Ag7W7s5oAOkGKFc84ClT-61" value="NameServer Cluster 集群模式" style="text;html=1;align=center;verticalAlign=middle;whiteSpace=wrap;rounded=0;" vertex="1" parent="1">
          <mxGeometry x="433.5" y="150" width="166.5" height="30" as="geometry" />
        </mxCell>
        <mxCell id="Ag7W7s5oAOkGKFc84ClT-62" value="Comsumer Cluster 集群模式" style="text;html=1;align=center;verticalAlign=middle;whiteSpace=wrap;rounded=0;" vertex="1" parent="1">
          <mxGeometry x="850" y="402" width="166.5" height="30" as="geometry" />
        </mxCell>
        <mxCell id="Ag7W7s5oAOkGKFc84ClT-63" value="&lt;div&gt;Comsumer&lt;/div&gt;" style="text;html=1;align=center;verticalAlign=middle;whiteSpace=wrap;rounded=0;" vertex="1" parent="1">
          <mxGeometry x="1065.5" y="481" width="79" height="30" as="geometry" />
        </mxCell>
        <mxCell id="Ag7W7s5oAOkGKFc84ClT-68" value="" style="endArrow=classic;startArrow=classic;html=1;rounded=1;entryX=0;entryY=0.5;entryDx=0;entryDy=0;exitX=0.5;exitY=0;exitDx=0;exitDy=0;curved=0;" edge="1" parent="1" source="Ag7W7s5oAOkGKFc84ClT-2" target="Ag7W7s5oAOkGKFc84ClT-10">
          <mxGeometry width="50" height="50" relative="1" as="geometry">
            <mxPoint x="200" y="390" as="sourcePoint" />
            <mxPoint x="210" y="220" as="targetPoint" />
            <Array as="points">
              <mxPoint x="210" y="250" />
              <mxPoint x="270" y="210" />
            </Array>
          </mxGeometry>
        </mxCell>
        <mxCell id="Ag7W7s5oAOkGKFc84ClT-69" value="" style="endArrow=classic;startArrow=classic;html=1;rounded=1;entryX=1;entryY=0.5;entryDx=0;entryDy=0;exitX=0.5;exitY=0;exitDx=0;exitDy=0;curved=0;" edge="1" parent="1" source="Ag7W7s5oAOkGKFc84ClT-51" target="Ag7W7s5oAOkGKFc84ClT-10">
          <mxGeometry width="50" height="50" relative="1" as="geometry">
            <mxPoint x="950" y="381" as="sourcePoint" />
            <mxPoint x="1185" y="197" as="targetPoint" />
            <Array as="points">
              <mxPoint x="966" y="237" />
              <mxPoint x="940" y="220" />
            </Array>
          </mxGeometry>
        </mxCell>
        <mxCell id="Ag7W7s5oAOkGKFc84ClT-70" value="" style="endArrow=classic;startArrow=classic;html=1;rounded=0;entryX=0;entryY=0.5;entryDx=0;entryDy=0;exitX=1;exitY=0.5;exitDx=0;exitDy=0;" edge="1" parent="1" source="Ag7W7s5oAOkGKFc84ClT-2" target="Ag7W7s5oAOkGKFc84ClT-22">
          <mxGeometry width="50" height="50" relative="1" as="geometry">
            <mxPoint x="290" y="580" as="sourcePoint" />
            <mxPoint x="340" y="530" as="targetPoint" />
          </mxGeometry>
        </mxCell>
        <mxCell id="Ag7W7s5oAOkGKFc84ClT-72" value="" style="endArrow=classic;startArrow=classic;html=1;rounded=0;entryX=0;entryY=0.5;entryDx=0;entryDy=0;exitX=1;exitY=0.5;exitDx=0;exitDy=0;" edge="1" parent="1" source="Ag7W7s5oAOkGKFc84ClT-22" target="Ag7W7s5oAOkGKFc84ClT-51">
          <mxGeometry width="50" height="50" relative="1" as="geometry">
            <mxPoint x="760" y="443.82" as="sourcePoint" />
            <mxPoint x="841" y="444.82" as="targetPoint" />
          </mxGeometry>
        </mxCell>
        <mxCell id="Ag7W7s5oAOkGKFc84ClT-73" value="" style="endArrow=classic;startArrow=classic;html=1;rounded=0;entryX=0.5;entryY=0;entryDx=0;entryDy=0;exitX=0.5;exitY=1;exitDx=0;exitDy=0;" edge="1" parent="1" source="Ag7W7s5oAOkGKFc84ClT-10" target="Ag7W7s5oAOkGKFc84ClT-22">
          <mxGeometry width="50" height="50" relative="1" as="geometry">
            <mxPoint x="369" y="474" as="sourcePoint" />
            <mxPoint x="450" y="475" as="targetPoint" />
          </mxGeometry>
        </mxCell>
        <mxCell id="Ag7W7s5oAOkGKFc84ClT-74" value="发送消息" style="text;html=1;align=center;verticalAlign=middle;whiteSpace=wrap;rounded=0;" vertex="1" parent="1">
          <mxGeometry x="314" y="462" width="151" height="30" as="geometry" />
        </mxCell>
        <mxCell id="Ag7W7s5oAOkGKFc84ClT-75" value="接收消息" style="text;html=1;align=center;verticalAlign=middle;whiteSpace=wrap;rounded=0;" vertex="1" parent="1">
          <mxGeometry x="729" y="462" width="151" height="30" as="geometry" />
        </mxCell>
        <mxCell id="Ag7W7s5oAOkGKFc84ClT-76" value="注册" style="text;html=1;align=center;verticalAlign=middle;whiteSpace=wrap;rounded=0;" vertex="1" parent="1">
          <mxGeometry x="163" y="239" width="151" height="30" as="geometry" />
        </mxCell>
        <mxCell id="Ag7W7s5oAOkGKFc84ClT-77" value="注册" style="text;html=1;align=center;verticalAlign=middle;whiteSpace=wrap;rounded=0;" vertex="1" parent="1">
          <mxGeometry x="840" y="229" width="151" height="30" as="geometry" />
        </mxCell>
        <mxCell id="Ag7W7s5oAOkGKFc84ClT-79" value="&lt;span style=&quot;color: rgb(34, 34, 34); font-family: &amp;quot;PingFang SC&amp;quot;, &amp;quot;Microsoft YaHei&amp;quot;, &amp;quot;Helvetica Neue&amp;quot;, Helvetica, Arial, sans-serif; text-align: left; background-color: rgb(255, 255, 255);&quot;&gt;&lt;font style=&quot;font-size: 13px;&quot;&gt;Topic跟Broker的映射&lt;/font&gt;&lt;/span&gt;" style="text;html=1;align=center;verticalAlign=middle;whiteSpace=wrap;rounded=0;" vertex="1" parent="1">
          <mxGeometry x="556.75" y="290" width="191.5" height="20" as="geometry" />
        </mxCell>
      </root>
    </mxGraphModel>
  </diagram>
</mxfile>
